/* XPM */
static char *result[] = {
/* columns rows colors chars-per-pixel */
"64 64 5 1 ",
"  c black",
". c red",
"X c #0000A0",
"o c #A8A1A8",
"O c white",
/* pixels */
"oooooooooooooooooooooooooooooooooooooooooooooooooooooooooooooooo",
"oooooooooooooooooooooooooooooooooooooooooooooooooooooooooooooooo",
"oooooooooooooooooooooooooooooooooooooooooooooooooooooooooooooooo",
"oooooooooooooooooooooooooooooooooooooooooooooooooooooooooooooooo",
"oooooooooooooooooooooooooooooooooooooooooooooooooooooooooooooooo",
"oooooooooooooooooooooooooooooooooooooooooooooooooooooooooooooooo",
"oooooooooooooooooooooooooooooooooooooooooooooooooooooooooooooooo",
"ooooooooooo oooooooooooooooooooooooooooooooooooooooooooooooooooo",
"oooooooooooooooooooooooooooooooooooooooooooooooooo ooooooooooooo",
"oooooooooooooooooooooooooo ooooooooooooooooooooooooooooooooooooo",
"oooooooooooooooooooooooooooooooooooooooooo ooooooooooooooooooooo",
"ooooooooooooooooooo........................ooooooooooooooooooooo",
"ooooooooooooooooooo........................ooooooooooooooooooooo",
"ooooooooooooooooooo........................ooooooooooooooooooooo",
"oooooooooooooooo..............................oooooooooooooooooo",
"oooooooooooooooo..............................oooooooooooooooooo",
"oooooooooooooooo..............................oooooooooooooooooo",
"ooooooooooooo......OOOOOO.........OOOOOO.........ooooooooooooooo",
"ooooooooooooo......OOOOOO.........OOOOOO.........ooooooooooooooo",
"ooooooooooooo......OOOOOO.........OOOOOO.........ooooooooooooooo",
"ooooooooooooo...OOOOOOOOOOOO...OOOOOOOOOOOO......ooooooooooooooo",
"ooooooooooooo...OOOOOOOOOOOO...OOOOOOOOOOOO......ooooooooooooooo",
"ooooooooooooo...OOOOOOOOOOOO...OOOOOOOOOOOO......ooooooooooooooo",
"ooooooooooooo...XXXXXXOOOOOO...XXXXXXOOOOOO......ooooooooooooooo",
"ooooo  oooooo...XXXXXXOOOOOO...XXXXXXOOOOOO......ooooooooooooooo",
"ooooooooooooo...XXXXXXOOOOOO...XXXXXXOOOOOO......ooooooooooooooo",
"ooooooooooooo...XXXXXXOOOOOO...XXXXXXOOOOOO......ooooooooooooooo",
"ooooooooooooo...XXXXXXOOOOOO...XXXXXXOOOOOO......ooooooooooooooo",
"ooooooooooooo...XXXXXXOOOOOO...XXXXXXOOOOOO......o ooooooooooooo",
"ooooooooooooo......OOOOOO.........OOOOOO.........ooooooooooooooo",
"ooooooooooooo......OOOOOO.........OOOOOO.........ooooooooooooooo",
"oooooooooooo ......OOOOOO.........OOOOOO.........ooooooooooooooo",
"ooooooooooooo....................................ooooooooooooooo",
"ooooooooooooo....................................ooooooooooooooo",
"ooooooooooooo....................................ooooooooooooooo",
"ooooooooooooo....................................ooooooooooooooo",
"ooooooooooooo....................................ooooooooooooooo",
"ooooooooooooo....................................ooooooooooooooo",
"ooooooooooooo....................................ooooooooooooooo",
"ooooooooooooo....................................ooooooooooooooo",
"ooooooooooooo....................................ooooooooooooooo",
"ooooooooooooo....................................oooooo oooooooo",
"ooooooooooooo....................................ooooooooooooooo",
"o ooooooooooo....................................ooooooooooooooo",
"oooooooooooooooo......ooo......ooo......ooo......ooooooooooooooo",
"oooooooooooooooo......ooo......ooo......ooo......ooooooooooooooo",
"oooooooooooooooo......ooo......ooo......ooo......ooooooooooooooo",
"ooooooooooooooooooo...oooooo...oooooo...oooooo...ooooooooooooooo",
"ooooooooooooo ooooo...oooooo...oooooo...oooooo...ooooooooooooooo",
"ooooooooooooooooooo...oooooo...oooooo...oooooo...ooooooooooooooo",
"oooooooooooooooooooooooooooooooooooooooooooooooooooooooooooooooo",
"oooooooooooooooooooooooooooooooooooooooooooooooooo ooooooooooooo",
"oooooooooooooooooooooooooooooooooooooooooooooooooooooooooooooooo",
"oooooooooooooooooooooooooooooooooooooooooooooooooooooooooooooooo",
"oooooooooooooooooooooooooooooooooooooooooooooooooooooooooooooooo",
"oooooooooooooooooooooooooooooooooooooooooooooooooooooooooooooooo",
"oooooooooooooooooooooooooooooooooooooooooooooooooooooooooooooooo",
"oooooooooooooooooooooooooooooooooooooooooooooooooooooooooooooooo",
"oooooooooooooooooooooooooooooooooooooooooooooooooooooooooooooooo",
"ooooooooooooooooooooooooooooooooo oooooooooooooooooooooooooooooo",
"ooooooooooooooooooooooooooooooooo oooooooooooooooooooooooooooooo",
"oooooooooooooooooooooooooooooooooooooooooooooooooooooooooooooooo",
"oooooooooooooooooooooooooooooooooooooooooooooooooooooooooooooooo",
"oooooooooooooooooooooooooooooooooooooooooooooooooooooooooooooooo"
};
