/* XPM */
static char *result[] = {
/* columns rows colors chars-per-pixel */
"64 64 14 1 ",
"  c black",
". c #A30507",
"X c #B60608",
"o c #CB070A",
"O c #E2080C",
"+ c #FC0A0E",
"@ c #FC2226",
"# c #E0CE08",
"$ c #FAE60A",
"% c #FAE822",
"& c #0A26B0",
"* c #223CB8",
"= c white",
"- c None",
/* pixels */
"----------------------------------------------------------------",
"----------------------------------------------------------------",
"----------------------------------------------------------------",
"----------------------------------------------------------------",
"----------------------------------------------------------------",
"----------------------------------------------------------------",
"----------------------------------------------------------------",
"----------------------------------------------------------------",
"----------------------------------------------------------------",
"----------------------------------------------------------------",
"----------------------------------------------------------------",
"----------------------------------------------------------------",
"----------------------------------------------------------------",
"--------------------------------------------     ---------------",
"------------------------------------------- @@@@  --------------",
"------------------------------------------ @+===$$  ------------",
"----------------------------------------  @+=   =$## -----------",
"----------------------------------------  @+=   =$## -----------",
"----------------------------------------  @+=   =$## -----------",
"----------------------------------------  @++====$## -----------",
"----------------------------------------  @+++++++## -----------",
"----------------------------------------  @+++++++  ------------",
"--------------------------------------- @@++++++++  ------------",
"--------------------------------------- @@+++  +++  ------------",
"-------------------------------------- @+++++++ O+  ------------",
"-------------------------------------- @+++++++ O+  ------------",
"-------------------------------------- @+++++++ O+OO -----------",
"------------------------------------- @++++++  o++OO -----------",
"-----------------------------------  *&++++++  o++OO -----------",
"---------------------------------- %%$&&++++ oo+++OO -----------",
"---------------------------------- %%$$&&&+ o++++O  ------------",
"---------------------------------- %%+$    o++++OO  ------------",
"---------------------------------- %%+$    o++++OO  ------------",
"---------------------------------  @@   XX.o+++OO   ------------",
"---------------------------------     OO++++OOOO  --------------",
"--------------------------------  $$$$+++++OO    ---------------",
"-------------------------------- $$$$$         $ ---------------",
"------------------------------- $$$$$  ----  $$$$ --------------",
"-----------------------------  $$$$   ------ $$ $ --------------",
"-----------------------------  $$$$   ------ $$ $ --------------",
"-----------------------------  $$  ---------      --------------",
"---------------------------- $$$  ------------------------------",
"--------------------------- $$$  -------------------------------",
"-------------------------- $$   --------------------------------",
"--------------------------   -----------------------------------",
"-----------------------    -------------------------------------",
"-----------------------    -------------------------------------",
"----------------------  ----------------------------------------",
"----------------------------------------------------------------",
"----------------------------------------------------------------",
"----------------------------------------------------------------",
"----------------------------------------------------------------",
"----------------------------------------------------------------",
"----------------------------------------------------------------",
"----------------------------------------------------------------",
"----------------------------------------------------------------",
"----------------------------------------------------------------",
"----------------------------------------------------------------",
"----------------------------------------------------------------",
"----------------------------------------------------------------",
"----------------------------------------------------------------",
"----------------------------------------------------------------",
"----------------------------------------------------------------",
"----------------------------------------------------------------"
};
