/* XPM */
static char *result[] = {
/* columns rows colors chars-per-pixel */
"64 64 6 1 ",
"  c black",
". c #37474F",
"X c #008000",
"o c #4CAF50",
"O c #CDDC39",
"+ c #A8A1A8",
/* pixels */
"++++++++++++++++++++++++++++++++++++++++++++++++++++++++++++++++",
"++++++++++++++++++++++++++++++++++++++++++++++++++++++++++++++++",
"++++++++++++++++++++++++++++++++++++++++++++++++++++++++++++++++",
"++++++++++++++++++++++++++++++++++++++++++++++++++++++++++++++++",
"++++++++++++++++++++++++++++++++++++++++++++++++++++++++++++++++",
"++++++++++++++++++++++++++++++++++++++++++++++++++++++++++++++++",
"+++++++++++++++++++++++++++++OOoooooooo+++++++++++++++++++++++++",
"+++++++++++ +++++++++++++++++OOooooooooooooooo++++++++++++++++++",
"+++++++++++++++++++++++++++++OOooooooooooooooo++++ +++++++++++++",
"+++++++++++..................OOoooooooooooooooooooo...++++++++++",
"+++++++++++..................OOoooooooooooooooooooo...++++++++++",
"+++++++++++..................OOoooooooooooooooooooo...++++++++++",
"+++++++++++.....             OOoooooXXXXXoooooooooo...++++++++++",
"+++++++++++.....             OOoooooXXXooXXXXXooooo...++++++++++",
"+++++++++++.....             OOoooooXXXooXXXXXooooo...++++++++++",
"+++++++++++.....             OOoooooXXXooXXXooOOOoo...++++++++++",
"+++++++++++.....             OOoooooXXXooXXXooOOOoo...++++++++++",
"+++++++++++.....             OOoooooXXXooXXXooOOOoo...++++++++++",
"+++++++++++.....             OOoooooXXXooXXXooOOOOO...++++++++++",
"+++++++++++.....             OOoooooXXXooXXXooOOOXX...++++++++++",
"+++++++++++.....             OOoooooXXXooXXXooOOOXX...++++++++++",
"+++++++++++.....             OOoooooXXXooXXXooOOOXX...++++++++++",
"+++++++++++.....             OOoooooXXXooXXXooOOOXX...++++++++++",
"+++++++++++.....             OOoooooXXXooXXXooOOOoo...++++++++++",
"+++++  ++++.....             OOoooooXXXooXXXooOOOoo...++++++++++",
"+++++++++++.....             OOoooooXXXooXXXooOOOoo...++++++++++",
"+++++++++++.....             OOoooooXXXooXXXooOOOoo...++++++++++",
"+++++++++++.....             OOoooooXXXooXXXooOOOoo...++++++++++",
"+++++++++++.....             OOooooooooOOOOOooOOOoo...++++++++++",
"+++++++++++.....             OOoooooooooooooOOOOOoo...++++++++++",
"+++++++++++.....             OOoooooooooooooOOOOOoo...++++++++++",
"+++++++++++.....             OOoooooooooooooooooooo...++++++++++",
"+++++++++++.....             OOoooooooooooooooooooo...++++++++++",
"+++++++++++.....             OOoooooooooooooooooooo...++++++++++",
"+++++++++++.....             OOoooooooooooooooooooo...++++++++++",
"+++++++++++.....             OOoooooooooooooooooooo...++++++++++",
"+++++++++++.....             OOoooooooooooooXXOOOoo...++++++++++",
"+++++++++++.....             OOoooooooooooooXXOOOoo...++++++++++",
"+++++++++++.....             OOooooooooXXXXXooOOOoo...++++++++++",
"+++++++++++.....             OOoooooXXXooXXXooOOOoo...++++++++++",
"+++++++++++.....             OOoooooXXXooXXXooOOOoo...++++++++++",
"+++++++++++.....             OOoooooXXXooXXXooOOOoo...+ ++++++++",
"+++++++++++.....             OOoooooXXXooXXXooOOOoo...++++++++++",
"+ +++++++++.....             OOoooooXXXooXXXooOOOoo...++++++++++",
"+++++++++++.....             OOoooooXXXooXXXooOOOOO...++++++++++",
"+++++++++++.....             OOoooooXXXooXXXooOOOXX...++++++++++",
"+++++++++++.....             OOoooooXXXooXXXooOOOXX...++++++++++",
"+++++++++++.....             OOoooooXXXooXXXooOOOXX...++++++++++",
"+++++++++++.....             OOoooooXXXooXXXooOOOXX...++++++++++",
"+++++++++++.....             OOoooooXXXooXXXooOOOoo...++++++++++",
"+++++++++++.....             OOoooooXXXooXXXooOOOoo...++++++++++",
"+++++++++++.....             OOoooooXXXooXXXooOOOoo...++++++++++",
"+++++++++++.....             OOoooooXXXooOOOOOooooo...++++++++++",
"+++++++++++.....             OOoooooXXXooOOOOOooooo...++++++++++",
"+++++++++++.....             OOoooooXXXOOoooooooooo...++++++++++",
"+++++++++++..................OOoooooooooooooooooooo...++++++++++",
"+++++++++++..................OOoooooooooooooooooooo...++++++++++",
"+++++++++++..................OOoooooooooooooooooooo...++++++++++",
"+++++++++++++++++++++++++++++OOooooooooooooooo++++++++++++++++++",
"+++++++++++++++++++++++++++++OOooooooooooooooo++++++++++++++++++",
"+++++++++++++++++++++++++++++OOoooooooo+++++++++++++++++++++++++",
"++++++++++++++++++++++++++++++++++++++++++++++++++++++++++++++++",
"++++++++++++++++++++++++++++++++++++++++++++++++++++++++++++++++",
"++++++++++++++++++++++++++++++++++++++++++++++++++++++++++++++++"
};
