/* XPM */
static char *result[] = {
/* columns rows colors chars-per-pixel */
"64 64 3 1 ",
"  c black",
". c #D26B20",
"X c #EBAA7A",
/* pixels */
"XXXXXXXXXXXXXXXXXXXXXXXXXXXXXXXXXXXXXXXXXXXXXXXXXXXXXXXXXXXXXXXX",
"XXXXXXXXXXXXXXXXXXXXXXXXXXXXXXXXXXXXXXXXXXXXXXXXXXXXXXXXXXXXXXXX",
"XXXXXXXXXXXXXXXXXXXXXXXXXXXXXXXXXXXXXXXXXXXXXXXXXXXXXXXXXXXXXXXX",
"XXXXXXXXXXXXXXXXXXXXXXXXXXXXXXXXXXXXXXXXXXXXXXXXXXXXXXXXXXXXXXXX",
"............................    ............................    ",
"............................    ............................    ",
"............................    ............................    ",
"............................    ............................    ",
"............................    ............................    ",
"............................    ............................    ",
"............................    ............................    ",
"............................    ............................    ",
"                                                                ",
"                                                                ",
"                                                                ",
"                                                                ",
"............    ................................    ............",
"............    ................................    ............",
"............    ................................    ............",
"............    ................................    ............",
"............    ................................    ............",
"............    ................................    ............",
"............    ................................    ............",
"............    ................................    ............",
"............    ................................    ............",
"............    ................................    ............",
"............    ................................    ............",
"............    ................................    ............",
"                                                                ",
"                                                                ",
"                                                                ",
"                                                                ",
"............................    ............................    ",
"............................    ............................    ",
"............................    ............................    ",
"............................    ............................    ",
"............................    ............................    ",
"............................    ............................    ",
"............................    ............................    ",
"............................    ............................    ",
"............................    ............................    ",
"............................    ............................    ",
"............................    ............................    ",
"............................    ............................    ",
"                                                                ",
"                                                                ",
"                                                                ",
"                                                                ",
"............    ................................    ............",
"............    ................................    ............",
"............    ................................    ............",
"............    ................................    ............",
"............    ................................    ............",
"............    ................................    ............",
"............    ................................    ............",
"............    ................................    ............",
"............    ................................    ............",
"............    ................................    ............",
"............    ................................    ............",
"............    ................................    ............",
"                                                                ",
"                                                                ",
"                                                                ",
"                                                                "
};
